<svg viewBox="0 0 100 100" fill="none" xmlns="http://www.w3.org/2000/svg">
  <!-- Background circle with gradient -->
  <defs>
    <linearGradient id="gradient" x1="0%" y1="0%" x2="100%" y2="100%">
      <stop offset="0%" stop-color="#3B82F6" />
      <stop offset="50%" stop-color="#8B5CF6" />
      <stop offset="100%" stop-color="#3B82F6" />
    </linearGradient>
  </defs>
  
  <circle cx="50" cy="50" r="45" fill="url(#gradient)" stroke="#3B82F6" stroke-width="2"/>
  
  <!-- AI Brain/Neural Network Pattern -->
  <g fill="white">
    <!-- Central nodes -->
    <circle cx="35" cy="40" r="3"/>
    <circle cx="50" cy="35" r="4"/>
    <circle cx="65" cy="40" r="3"/>
    <circle cx="50" cy="55" r="3"/>
    <circle cx="35" cy="65" r="3"/>
    <circle cx="65" cy="65" r="3"/>
    
    <!-- Connection lines -->
    <line x1="35" y1="40" x2="50" y2="35" stroke="white" stroke-width="1.5" opacity="0.7"/>
    <line x1="50" y1="35" x2="65" y2="40" stroke="white" stroke-width="1.5" opacity="0.7"/>
    <line x1="35" y1="40" x2="50" y2="55" stroke="white" stroke-width="1.5" opacity="0.7"/>
    <line x1="50" y1="35" x2="50" y2="55" stroke="white" stroke-width="1.5" opacity="0.7"/>
    <line x1="65" y1="40" x2="50" y2="55" stroke="white" stroke-width="1.5" opacity="0.7"/>
    <line x1="35" y1="40" x2="35" y2="65" stroke="white" stroke-width="1.5" opacity="0.7"/>
    <line x1="50" y1="55" x2="35" y2="65" stroke="white" stroke-width="1.5" opacity="0.7"/>
    <line x1="50" y1="55" x2="65" y2="65" stroke="white" stroke-width="1.5" opacity="0.7"/>
    <line x1="65" y1="40" x2="65" y2="65" stroke="white" stroke-width="1.5" opacity="0.7"/>
  </g>
</svg>
